Patient4_TMGait_0pt6_01_left_26_EMG.mot
version=1
nRows=23
nColumns=33
inDegrees=no
endheader
time	1LAddLong	2LGlutMax	3LGlutMed	4LIliopsoas	5LSemiMemb	6LBicFemLong	7LRecFem	8LVastMed	9LVastLat	10LGasMed	11LTibAnt	12lTibPost	13LPeroneusLong	14LSol	15LExtDigLong	16LFlexDigLong	17RAddLong	18RGlutMax	19RGlutMed	20RIliopsoas	21RSemiMemb	22RBicFemLong	23RRecFem	24RVastMed	25RVastLat	26RGasMed	27RTibAnt	28RTibPost	29RPeroneusLong	30RSol	31RExtDigLong	32RFlexDigLong
32.06	0.000153	0.93872	-0.083466	0.007019	-0.1358	0.27435	0.41382	0.020294	-0.14267	0	-0.003357	0.020905	0.25177	-0.51697	-0.025635	0.003815	-0.096436	0.19714	-0.22522	0.029144	0.002136	0.057068	0.76782	-0.034027	0.022888	0.00061	0.14603	-0.008698	-0.15808	-0.16846	0.001831	-0.014191
32.061	-0.002899	0.83969	-0.014343	0.015869	-0.10803	0.17639	0.3537	0.019073	-0.32883	0.023804	-0.015106	0.02121	0.056915	-0.50949	-0.018005	0.005035	-0.060883	0.23605	-0.20309	0.004578	0.019073	0.016327	0.68649	-0.002747	0.016022	0.011902	0.23529	-0.010223	-0.2565	-0.22568	0.00412	-0.015717
32.062	0.002441	0.63202	0.036163	0.010376	0.00946	0.037689	0.2417	0.024719	-0.32486	0.017548	-0.001678	0.026093	0.059509	-0.51743	0.033264	0.011749	-0.036926	0.28	-0.13748	-0.022888	0.01709	-0.005951	0.59204	0.036926	0.019531	0.01236	0.14145	-0.011139	-0.22293	-0.32318	0.000305	-0.02533
32.063	0.000305	0.50232	0.050659	-0.016479	0.031738	0.015106	0.13306	0.034943	-0.21668	0.018005	0.015564	0.021057	0.031281	-0.40726	0.04715	-0.000458	-0.021667	0.2092	-0.19119	0.00885	0.000305	-0.028992	0.55298	0.015106	0.016479	0.008392	0.005188	-0.014038	-0.16357	-0.37521	0.000916	-0.020599
32.064	-0.00412	0.39917	0.075989	-0.002136	0.045319	-0.13428	0.045929	0.038605	-0.13031	-0.00061	0.009766	0.023956	0.014954	-0.21515	0.050354	0.006409	-0.007629	0.24979	-0.31555	0.009766	-0.0177	-0.010986	0.60288	0.027161	0.004425	0.00351	0.28366	-0.014801	-0.16037	-0.44189	0.002594	-0.016937
32.065	0.000305	0.42358	0.11612	0.002747	0.035095	-0.34393	-0.041351	0.0383	-0.088196	-0.00473	0.020294	0.033417	-0.093231	-0.16525	0.045013	-0.000305	-0.079651	0.28915	-0.25177	0.008087	-0.026703	-0.01709	0.59296	0.098724	0.020905	0.00824	-0.29098	-0.012207	-0.086823	-0.43564	0.004425	-0.010223
32.066	-0.009918	0.45898	0.099182	0.003967	-0.001526	-0.46982	-0.11322	0.041809	-0.10574	0.010071	0.016937	0.034637	-0.098114	-0.19928	0.037384	0.011139	-0.057678	0.24811	-0.40024	0.006104	0.002594	-0.027161	0.62118	0.10178	0.015106	0.00824	-0.63477	-0.014801	0.038605	-0.38025	-0.000916	-0.018158
32.067	-0.025787	0.40237	0.027771	0.012665	-0.084534	-0.22522	-0.15305	0.050659	-0.038452	0.013123	0.017548	0.038605	-0.11581	-0.13641	0.021515	0.015564	-0.010071	0.20554	-0.33798	-0.024567	0.016174	-0.054016	0.68115	0.093231	0.023499	0.006256	-0.34607	-0.004578	0.063324	-0.31204	0.001678	-0.018005
32.068	-0.00946	0.31174	-0.21866	-0.002899	-0.17258	-0.10178	-0.12024	0.034943	0.075531	-0.001526	0.020447	0.036774	-0.084686	-0.071259	0.017395	0.022888	0.029907	0.11322	-0.49667	-0.047607	0.006104	-0.019836	0.6192	0.016785	0.017548	-0.005493	0.39993	-0.018158	-0.033264	-0.23621	0.002594	-0.019684
32.069	0.0354	0.31738	-0.22766	0.002899	-0.16602	-0.091705	-0.15488	0.019073	0.071106	-0.009155	0.000763	0.037537	-0.088348	-0.076752	0.005493	0.014801	0.026245	0.1535	-0.64133	0.013885	-0.037079	-0.050964	0.43716	-0.037079	-0.019836	-0.000305	0.35858	-0.019073	-0.005341	-0.2739	0.007019	-0.013275
32.07	0.051575	0.34515	-0.177	0.003052	-0.040436	-0.12726	-0.16968	-0.015106	-0.029602	-0.049438	0.019379	0.044403	-0.14053	-0.057831	-0.04715	0.016327	0.051117	0.15396	-0.62698	-0.046082	-0.034637	-0.11139	0.34271	-0.06073	0.002594	0.006866	-0.26016	-0.018311	0.061493	-0.23697	0.00412	-0.014343
32.071	0.075073	0.42984	-0.1561	-0.011139	0.1181	-0.10803	-0.17746	-0.016479	-0.024872	-0.085449	0.025787	0.039368	-0.11856	0.096741	-0.057526	0.017395	0.038452	0.20218	-0.50446	-0.12283	-0.002136	-0.050354	0.42496	-0.08728	0.020447	-0.000763	-0.31158	-0.004578	0.030518	-0.090942	-0.000916	-0.012207
32.072	0.088806	0.522	-0.052795	-0.029297	0.18417	0.063629	-0.26306	-0.020294	-0.1178	-0.11002	0.023804	0.039978	-0.075073	0.18249	-0.011292	0.015259	-0.004578	0.17029	-0.62286	-0.12375	0.01709	0.033264	0.48202	-0.05249	0.000763	-0.006409	-0.07782	-0.015259	-0.07431	0.060272	0.009155	-0.018158
32.073	0.07019	0.51224	-0.10346	0.003815	0.12314	0.16708	-0.32593	-0.001678	-0.14618	-0.1355	0.032349	0.040741	-0.053253	0.17792	0.014801	0.028229	-0.022583	0.1358	-0.72601	-0.074921	0.003967	0.063782	0.61233	-0.049133	0.016174	-0.001984	0.28641	-0.016174	-0.024109	0.020447	0.003967	-0.004883
32.074	0.057068	0.57571	-0.1326	0.016632	0.090332	0.21378	-0.39215	0.014191	-0.13611	-0.14282	0.023499	0.039825	-0.008087	0.12054	0.055847	0.023346	-0.024872	0.19058	-0.802	-0.055237	-0.015869	0.071106	0.63217	0.006714	0.022125	-0.000153	0.59174	-0.014648	0.059052	-0.018616	0.007477	-0.014038
32.075	0.045319	0.68039	0.014038	0.029602	0.042267	0.22583	-0.40741	-0.00412	0.10452	-0.14191	0.009003	0.037842	0.052795	0.028534	0.057678	0.033722	-0.001221	0.23254	-0.66315	0.046539	0.00351	0.11124	0.75745	0.000458	0.02121	-0.003204	0.42618	-0.001984	0.006866	-0.036316	0.004425	-0.010986
32.076	0.021973	0.7692	0.2034	0.01297	0.018158	0.029144	-0.25421	0.001373	0.036621	-0.11704	0.005341	0.051575	0.088654	0.065765	0.050812	0.025024	0.014038	0.22324	-0.69015	-0.054321	0.020752	0.084686	0.90164	0.036316	0.006866	-0.000763	0.1503	-0.01236	-0.014343	-0.029449	0.008392	-0.013123
32.077	0.022583	0.77911	-0.073547	0.011444	-0.011444	-0.001221	-0.076141	0.027771	0.009766	-0.047607	-0.004272	0.018616	0.033722	0.085297	0.005798	0.009308	0.021362	0.12756	-0.81528	-0.10422	0.018768	0.070496	0.93994	0.11139	0.027313	-0.002136	-0.23254	-0.012665	-0.007782	0.031128	0.007324	-0.022278
32.078	0.027466	0.81131	-0.11597	-0.013275	-0.031433	0.047913	-0.14954	0.017242	0.054321	-0.006714	0.004578	0.039673	0.030518	0.074158	-0.026398	0.019073	0.041656	0.090637	-0.80185	-0.071106	0.009613	0.034943	0.83832	0.09552	0.013123	-0.004578	-0.47073	-0.007629	-0.019379	0.026398	0.010223	-0.019684
32.079	0.001068	0.85754	-0.12558	-0.035248	-0.05249	-0.21072	-0.26199	0.009155	0.019989	0.010681	-0.011139	0.044098	0.04837	-0.001984	-0.043945	-0.000458	0.044708	0.10223	-0.81467	-0.042725	0.028992	0.024567	0.75012	0.07782	0.011597	0.004272	-0.27268	-0.008087	0.067291	-0.030212	0.005188	-0.019073
32.08	0.003967	0.90286	-0.11292	-0.028534	-0.044403	-0.30197	-0.27969	0.009308	0.023346	0.099182	0.005188	0.048676	0.023193	-0.011902	-0.044861	-0.50461	0.014648	0.08728	-0.7399	0.021057	0.02243	0.009613	0.73105	0.045319	-0.007019	0.009155	-0.15243	-0.00473	0.12268	-0.10864	0.009766	-0.028534
32.081	0.005035	0.93262	-0.11307	0.019836	0.030518	-0.14893	-0.24704	0.006409	0.020142	0.14328	0.016479	0.052185	-0.007019	0.010529	-0.034332	-0.15213	-0.01297	0.082092	-0.73791	0.056915	-0.011749	-0.024567	0.699	-0.070801	-0.018311	0.010376	0.089417	-0.008698	0.055237	-0.13199	0.009003	-0.03067
32.082	0.001831	0.90378	-0.18631	0.053101	-0.003357	-0.069733	-0.29999	0.010986	0.065155	0.18585	0.005188	0.050354	0.033264	0.041962	-0.02182	0.96802	-0.019226	0.18417	-0.7341	0.10407	-0.038452	-0.038452	0.77194	-0.10086	-0.019226	0.008545	-0.099792	-0.005188	0.042572	-0.10773	0.009003	-0.018921
